<svg viewBox="0 0 151 44" xmlns="http://www.w3.org/2000/svg"><path d="m22.1142342 0c.3980562 8.87517932.1769139 17.7282444-.663427 26.5591953-.3095993 2.4030801-.8403409 4.7398175-1.5922249 7.0102122-.8403409 2.9043361-2.4620514 5.2631877-4.8651315 7.076555-1.4890251.9730263-3.1254784 1.4447966-4.90936 1.4153109-1.72491027 0-3.30976372-.4201704-4.75456036-1.2605113-2.56525117-1.665939-4.34176131-3.9215909-5.32953044-6.7669557l6.30255675-2.6094796c.42754186 1.3858253 1.22365429 2.5136513 2.38833729 3.3834778.86982654.4865132 1.73228166.5086274 2.58736536.0663427 1.0762261-.9582835 1.7986244-2.1524521 2.167195-3.5825059.5897129-1.8428529 1.0098834-3.744677 1.2605113-5.7054724.7813696-8.3444377.9803978-16.8584179.5970844-25.54194053zm22.7776612 15.104022c1.4447967 2.742165 2.1229665 5.698101 2.0345096 8.8678079 0 3.3023923-.9803978 6.2730711-2.9411932 8.9120363-1.0909689 1.4300539-2.4325657 2.5357656-4.0247906 3.3171352-1.7396531.8550837-3.5751345 1.1499402-5.5064443.8845693-1.7691388-.2653708-3.3797921-.9066836-4.8319602-1.9239383-1.452168-1.0172548-2.6131653-2.3146232-3.4829919-3.8921052-1.5627392-2.8748505-2.1524521-5.9339862-1.7691387-9.1774072.2653708-3.2286782 1.4079396-6.1109001 3.4277063-8.6466656 1.2236543-1.4300538 2.705308-2.4473086 4.4449611-3.0517643 1.164683-.39805624 2.3809658-.59708435 3.6488486-.59708435v-.02211424h.1326854c.2801136 0 .7002841.01474283 1.2605114.04422847v.02211424c1.3858253.17691388 2.6905651.62656998 3.9142194 1.34896828 1.5922249.9730263 2.8232506 2.2777661 3.6930771 3.9142195zm-6.2804425 13.600254c1.0467404-1.4447966 1.5553678-3.0738786 1.5258822-4.8872458.0589713-1.8428528-.3317135-3.6341058-1.1720544-5.3737589-.3095993-.6191985-.7297698-1.0983403-1.2605114-1.4374252-.4717703-.250628-.9656549-.3906848-1.4816537-.4201705-1.3121112-.1179425-2.4030801.3169707-3.2729066 1.3047399-1.0762261 1.4447966-1.6806818 3.0886213-1.8133673 4.9314742-.2211423 1.7986244.0810856 3.494049.9066836 5.0862739.339085.6339413.7961125 1.164683 1.3710826 1.5922248.5749701.4275419 1.2162829.7002841 1.9239383.8182267.589713.0884569 1.1425688 0 1.6585676-.2653708.6781699-.3538278 1.2162829-.8034839 1.6143391-1.3489683zm22.5344047-4.8651315c2.9780502 1.3563397 6.0740429 2.3809658 9.2879783 3.0738785l-1.3931967 6.6563845c-4.6145036-.9877691-9.0520932-2.5947368-13.312769-4.820903l-.088457 9.0004933-6.7890699.0884569.2653708-29.25713183 6.7890699.1326854-.0884569 10.92443173 7.5409539-9.5975777 5.3516446 4.2017045zm28.7485044.3095992c-2.3146232 2.1819378-5.0494168 3.4424492-8.2043809 3.7815341-.5602272.0294856-.9730263.0442285-1.2383971.0442285.5749701.7813696 1.3194826 1.4374252 2.2335377 1.9681668 2.6684509 1.1794258 5.4327302 1.4742823 8.2928378.8845694l.8403409 6.7448414c-4.3049043.7961124-8.4402661.2358852-12.4060854-1.6806818-2.1082237-1.1499402-3.7962769-2.7200508-5.0641596-4.7103319-1.2826256-2.0492524-1.9460526-4.2901614-1.9902811-6.7227272-.0884569-2.2556519.2616851-4.4412753 1.0504261-6.5568704s1.9571097-3.9989907 3.5051061-5.6501869c1.7691388-1.8575956 3.958448-2.98542157 6.5679276-3.38347779.2653708-.02948564.4717703-.05159988.6191985-.0663427v-.02211423c.4127991-.01474283.8403409-.01474283 1.2826256 0 .6929127.04422846 1.4005682.16954246 2.1229665.37594198.0442285.01474282.0995141.03685705.1658568.0663427s.1142568.04422847.1437425.04422847c.0294856 0 .0700284.01105711.1216283.03317135.0515999.02211423.0921426.04054276.1216283.05528558.5749701.23588517.9066836.37594199.9951405.42017045.0442285.02948565.1105712.06634271.1990281.11057118.0147428.01474282.0331714.02948564.0552856.04422846.0221142.01474283.0405428.02211424.0552856.02211424.4422847.25062801.8108552.50125601 1.1057117.75188401l.1769139.1769138c.2948564.2653708.5086274.4717704.6413128.6191986l-.0221143.0221142c.7961125.8698266 1.3710825 1.8428529 1.7249103 2.9190789.3095993.9287979.4275419 1.9091956.3538277 2.9411932-.0442284.914055-.2506279 1.8207386-.6191985 2.7200508-.6191986 1.5332536-1.5627392 2.8822218-2.830622 4.0469048zm-10.2831189-3.1623354c.501256.162171 1.002512.2211423 1.5037679.1769138 1.5627392-.2211423 2.9411932-.8845693 4.1353618-1.9902811.4275419-.2948564.751884-.6855412.9730263-1.1720544.2211424-.4865131.3095993-.9877691.2653708-1.5037679-.0884569-.2948564-.2653708-.5159988-.5307416-.663427l-.0442285-.0221143c-.1031997-.0589712-.2727422-.1179425-.5086273-.1769138l-.1326854-.0221143c-.1031998-.0147428-.2579994-.0221142-.464399-.0221142h-.4201704c-1.0762261.1916567-1.9607954.6781699-2.6537081 1.4595395-1.0319976 1.1204545-1.7396531 2.4325657-2.1229665 3.9363337zm29.8542159 6.6563844c2.005024.751884 4.054277 1.3489683 6.147757 1.791253l-1.393196 6.6563845c-4.245933-.8993122-8.270724-2.2777661-12.074372-4.1353618l-.066343 5.7939294-6.7890699.0884569.2653709-29.25713183 6.2141.1326854.57497.06634271c2.860107.35382774 5.403244 1.47428232 7.629411 3.36136362 1.194168.9582835 2.108223 2.1303379 2.742165 3.5161632.633941 1.3858254.921426 2.8379934.862455 4.3565041-.058971 1.5332536-.449656 2.9706788-1.172055 4.3122757-.722398 1.3415969-1.702796 2.4473086-2.941193 3.3171351zm-2.720051-7.3640399c.117943-1.2383972-.309599-2.2630233-1.282625-3.0738786-.928798-.7666268-1.98291-1.2752542-3.162336-1.5258822l-.066342 7.9611244c.250628-.0589713.545484-.1400569.884569-.2432566.884569-.2801137 1.680682-.7002841 2.388337-1.2605114.707656-.5602272 1.120455-1.1794258 1.238397-1.8575956zm11.654202 16.8068179.287485-22.8440039 6.78907.1769139-.287485 22.5786331zm8.381295-31.73392602c.36857 1.26788276.235885 2.46942281-.398057 3.60462017-.633941 1.13519735-1.581167 1.88339565-2.841679 2.24459475-1.260511.3611992-2.458365.2248281-3.593563-.4091133-1.135197-.6339414-1.883395-1.58485346-2.244594-2.85273622-.3612-1.26788276-.224829-2.46942282.409113-3.60462018.633941-1.13519735 1.581168-1.88339561 2.841679-2.24459477s2.458366-.22482805 3.593563.40911333 1.87971 1.58485345 2.233538 2.85273622zm19.748011 18.79709902c-2.314623 2.1819378-5.049417 3.4424492-8.204381 3.7815341-.560227.0294856-.973026.0442285-1.238397.0442285.57497.7813696 1.319482 1.4374252 2.233537 1.9681668 2.668451 1.1794258 5.432731 1.4742823 8.292838.8845694l.840341 6.7448414c-4.304904.7961124-8.440266.2358852-12.406085-1.6806818-2.108224-1.1499402-3.796277-2.7200508-5.06416-4.7103319-1.282625-2.0492524-1.946052-4.2901614-1.990281-6.7227272-.088457-2.2556519.261685-4.4412753 1.050426-6.5568704s1.95711-3.9989907 3.505106-5.6501869c1.769139-1.8575956 3.958448-2.98542157 6.567928-3.38347779.265371-.02948564.47177-.05159988.619198-.0663427v-.02211423c.412799-.01474283.840341-.01474283 1.282626 0 .692913.04422846 1.400568.16954246 2.122966.37594198.044229.01474282.099515.03685705.165857.0663427.066343.02948565.114257.04422847.143743.04422847.029485 0 .070028.01105711.121628.03317135.0516.02211423.092143.04054276.121628.05528558.57497.23588517.906684.37594199.995141.42017045.044228.02948565.110571.06634271.199028.11057118.014743.01474282.033171.02948564.055286.04422846.022114.01474283.040542.02211424.055285.02211424.442285.25062801.810855.50125601 1.105712.75188401l.176914.1769138c.294856.2653708.508627.4717704.641313.6191986l-.022115.0221142c.796113.8698266 1.371083 1.8428529 1.724911 2.9190789.309599.9287979.427541 1.9091956.353827 2.9411932-.044228.914055-.250628 1.8207386-.619198 2.7200508-.619199 1.5332536-1.562739 2.8822218-2.830622 4.0469048zm-10.283119-3.1623354c.501256.162171 1.002512.2211423 1.503768.1769138 1.562739-.2211423 2.941193-.8845693 4.135362-1.9902811.427541-.2948564.751884-.6855412.973026-1.1720544.221142-.4865131.309599-.9877691.265371-1.5037679-.088457-.2948564-.265371-.5159988-.530742-.663427l-.044228-.0221143c-.1032-.0589712-.272743-.1179425-.508628-.1769138l-.132685-.0221143c-.1032-.0147428-.258-.0221142-.464399-.0221142h-.420171c-1.076226.1916567-1.960795.6781699-2.653708 1.4595395-1.031997 1.1204545-1.739653 2.4325657-2.122966 3.9363337z" transform="translate(.5 .96875)"/></svg>
